<mxfile host="app.diagrams.net" modified="2023-12-19T22:09:20.348Z" agent="Mozilla/5.0 (Windows NT 10.0; Win64; x64) AppleWebKit/537.36 (KHTML, like Gecko) Chrome/118.0.5993.771 YaBrowser/23.11.2.771 Yowser/2.5 Safari/537.36" etag="pusLwrzhX8nBoWC8cCZP" version="22.1.11" type="google" pages="2">
  <diagram name="Диаграмма деятельности" id="0783ab3e-0a74-02c8-0abd-f7b4e66b4bec">
    <mxGraphModel dx="1840" dy="1120" grid="0" gridSize="10" guides="1" tooltips="1" connect="1" arrows="1" fold="1" page="0" pageScale="1" pageWidth="850" pageHeight="1100" background="none" math="0" shadow="0">
      <root>
        <mxCell id="0" />
        <mxCell id="1" parent="0" />
        <mxCell id="z9uXh1xA86YdtKLNnE2--1" value="Пользователь&lt;br&gt;" style="swimlane;html=1;startSize=20;rotation=-90;" parent="1" vertex="1">
          <mxGeometry x="474.52" y="-53.3" width="238.03" height="827.12" as="geometry" />
        </mxCell>
        <mxCell id="z9uXh1xA86YdtKLNnE2--36" style="edgeStyle=orthogonalEdgeStyle;rounded=0;orthogonalLoop=1;jettySize=auto;html=1;" parent="z9uXh1xA86YdtKLNnE2--1" source="z9uXh1xA86YdtKLNnE2--32" edge="1">
          <mxGeometry relative="1" as="geometry">
            <mxPoint x="-43.58252252252237" y="412.40810810810814" as="targetPoint" />
          </mxGeometry>
        </mxCell>
        <mxCell id="z9uXh1xA86YdtKLNnE2--32" value="Ввод данных" style="rounded=1;whiteSpace=wrap;html=1;" parent="z9uXh1xA86YdtKLNnE2--1" vertex="1">
          <mxGeometry x="-173.62" y="392.38" width="100" height="40" as="geometry" />
        </mxCell>
        <mxCell id="lEvwYSKVqgoVsjnKDAjR-1" style="edgeStyle=orthogonalEdgeStyle;rounded=0;orthogonalLoop=1;jettySize=auto;html=1;entryX=0;entryY=0.5;entryDx=0;entryDy=0;" edge="1" parent="z9uXh1xA86YdtKLNnE2--1" source="z9uXh1xA86YdtKLNnE2--35" target="lEvwYSKVqgoVsjnKDAjR-2">
          <mxGeometry relative="1" as="geometry">
            <mxPoint x="96.53011646167647" y="412.37999999999994" as="targetPoint" />
          </mxGeometry>
        </mxCell>
        <mxCell id="z9uXh1xA86YdtKLNnE2--35" value="Поиск треков" style="rounded=1;whiteSpace=wrap;html=1;" parent="z9uXh1xA86YdtKLNnE2--1" vertex="1">
          <mxGeometry x="-45.52" y="392.38" width="100" height="40" as="geometry" />
        </mxCell>
        <mxCell id="z9uXh1xA86YdtKLNnE2--58" style="edgeStyle=orthogonalEdgeStyle;rounded=0;orthogonalLoop=1;jettySize=auto;html=1;entryX=0;entryY=0.5;entryDx=0;entryDy=0;strokeColor=#000000;" parent="z9uXh1xA86YdtKLNnE2--1" source="z9uXh1xA86YdtKLNnE2--50" target="z9uXh1xA86YdtKLNnE2--51" edge="1">
          <mxGeometry relative="1" as="geometry" />
        </mxCell>
        <mxCell id="z9uXh1xA86YdtKLNnE2--50" value="Получить трек" style="rounded=1;whiteSpace=wrap;html=1;" parent="z9uXh1xA86YdtKLNnE2--1" vertex="1">
          <mxGeometry x="310.03" y="392.38" width="100" height="40" as="geometry" />
        </mxCell>
        <mxCell id="z9uXh1xA86YdtKLNnE2--54" style="edgeStyle=orthogonalEdgeStyle;rounded=0;orthogonalLoop=1;jettySize=auto;html=1;strokeColor=#000000;exitX=1;exitY=0.5;exitDx=0;exitDy=0;" parent="z9uXh1xA86YdtKLNnE2--1" source="z9uXh1xA86YdtKLNnE2--52" target="z9uXh1xA86YdtKLNnE2--32" edge="1">
          <mxGeometry relative="1" as="geometry" />
        </mxCell>
        <mxCell id="z9uXh1xA86YdtKLNnE2--52" value="" style="ellipse;html=1;shape=startState;fillColor=#000000;strokeColor=#000000;" parent="z9uXh1xA86YdtKLNnE2--1" vertex="1">
          <mxGeometry x="-233.62" y="397.38" width="30" height="30" as="geometry" />
        </mxCell>
        <mxCell id="z9uXh1xA86YdtKLNnE2--51" value="" style="ellipse;html=1;shape=endState;fillColor=#000000;strokeColor=#000000;" parent="z9uXh1xA86YdtKLNnE2--1" vertex="1">
          <mxGeometry x="456.03" y="397.38" width="30" height="30" as="geometry" />
        </mxCell>
        <mxCell id="lEvwYSKVqgoVsjnKDAjR-4" style="edgeStyle=orthogonalEdgeStyle;rounded=0;orthogonalLoop=1;jettySize=auto;html=1;" edge="1" parent="z9uXh1xA86YdtKLNnE2--1" source="lEvwYSKVqgoVsjnKDAjR-2" target="z9uXh1xA86YdtKLNnE2--50">
          <mxGeometry relative="1" as="geometry" />
        </mxCell>
        <mxCell id="lEvwYSKVqgoVsjnKDAjR-2" value="Есть ли этот&lt;br&gt;&amp;nbsp;трек в кеше?" style="rhombus;whiteSpace=wrap;html=1;" vertex="1" parent="z9uXh1xA86YdtKLNnE2--1">
          <mxGeometry x="95.48" y="377.63999999999993" width="136.52" height="69.47" as="geometry" />
        </mxCell>
        <mxCell id="lEvwYSKVqgoVsjnKDAjR-8" value="Нет" style="text;html=1;align=center;verticalAlign=middle;resizable=0;points=[];autosize=1;strokeColor=none;fillColor=none;" vertex="1" parent="z9uXh1xA86YdtKLNnE2--1">
          <mxGeometry x="148.48000000000002" y="459.3" width="38" height="26" as="geometry" />
        </mxCell>
        <mxCell id="z9uXh1xA86YdtKLNnE2--29" value="Сервер" style="swimlane;html=1;startSize=20;rotation=-90;" parent="1" vertex="1">
          <mxGeometry x="475.75" y="183.26" width="235.52" height="827" as="geometry" />
        </mxCell>
        <mxCell id="z9uXh1xA86YdtKLNnE2--47" style="edgeStyle=orthogonalEdgeStyle;rounded=0;orthogonalLoop=1;jettySize=auto;html=1;entryX=0;entryY=0.5;entryDx=0;entryDy=0;" parent="z9uXh1xA86YdtKLNnE2--29" source="z9uXh1xA86YdtKLNnE2--42" target="z9uXh1xA86YdtKLNnE2--46" edge="1">
          <mxGeometry relative="1" as="geometry">
            <mxPoint x="90.06" y="387.44" as="targetPoint" />
          </mxGeometry>
        </mxCell>
        <mxCell id="z9uXh1xA86YdtKLNnE2--42" value="Есть ли трек" style="rounded=1;whiteSpace=wrap;html=1;" parent="z9uXh1xA86YdtKLNnE2--29" vertex="1">
          <mxGeometry x="-69.5" y="395.35" width="91" height="36.19" as="geometry" />
        </mxCell>
        <mxCell id="z9uXh1xA86YdtKLNnE2--45" style="edgeStyle=orthogonalEdgeStyle;rounded=0;orthogonalLoop=1;jettySize=auto;html=1;" parent="z9uXh1xA86YdtKLNnE2--29" source="z9uXh1xA86YdtKLNnE2--43" target="z9uXh1xA86YdtKLNnE2--42" edge="1">
          <mxGeometry relative="1" as="geometry" />
        </mxCell>
        <mxCell id="z9uXh1xA86YdtKLNnE2--43" value="Вызов метода для поиска трека" style="rounded=1;whiteSpace=wrap;html=1;" parent="z9uXh1xA86YdtKLNnE2--29" vertex="1">
          <mxGeometry x="-78" y="316" width="108" height="47" as="geometry" />
        </mxCell>
        <mxCell id="z9uXh1xA86YdtKLNnE2--55" style="edgeStyle=orthogonalEdgeStyle;rounded=0;orthogonalLoop=1;jettySize=auto;html=1;entryX=0;entryY=0.5;entryDx=0;entryDy=0;strokeColor=#000000;" parent="z9uXh1xA86YdtKLNnE2--29" source="z9uXh1xA86YdtKLNnE2--46" target="z9uXh1xA86YdtKLNnE2--49" edge="1">
          <mxGeometry relative="1" as="geometry">
            <Array as="points">
              <mxPoint x="90.06" y="362.44" />
            </Array>
          </mxGeometry>
        </mxCell>
        <mxCell id="z9uXh1xA86YdtKLNnE2--56" style="edgeStyle=orthogonalEdgeStyle;rounded=0;orthogonalLoop=1;jettySize=auto;html=1;entryX=0;entryY=0.5;entryDx=0;entryDy=0;strokeColor=#000000;" parent="z9uXh1xA86YdtKLNnE2--29" source="z9uXh1xA86YdtKLNnE2--46" target="z9uXh1xA86YdtKLNnE2--48" edge="1">
          <mxGeometry relative="1" as="geometry">
            <Array as="points">
              <mxPoint x="90.06" y="468.44" />
            </Array>
          </mxGeometry>
        </mxCell>
        <mxCell id="z9uXh1xA86YdtKLNnE2--46" value="" style="rhombus;whiteSpace=wrap;html=1;" parent="z9uXh1xA86YdtKLNnE2--29" vertex="1">
          <mxGeometry x="70.12" y="398.44" width="40" height="30" as="geometry" />
        </mxCell>
        <mxCell id="z9uXh1xA86YdtKLNnE2--49" value="Отправить трек" style="rounded=1;whiteSpace=wrap;html=1;" parent="z9uXh1xA86YdtKLNnE2--29" vertex="1">
          <mxGeometry x="140.06" y="337.51" width="110" height="50" as="geometry" />
        </mxCell>
        <mxCell id="0W8tkMs0XRIJhyc4O4X--4" style="edgeStyle=orthogonalEdgeStyle;rounded=0;orthogonalLoop=1;jettySize=auto;html=1;" parent="z9uXh1xA86YdtKLNnE2--29" source="z9uXh1xA86YdtKLNnE2--48" target="0W8tkMs0XRIJhyc4O4X--1" edge="1">
          <mxGeometry relative="1" as="geometry" />
        </mxCell>
        <mxCell id="z9uXh1xA86YdtKLNnE2--48" value="Сообщить, что треков нет" style="rounded=1;whiteSpace=wrap;html=1;" parent="z9uXh1xA86YdtKLNnE2--29" vertex="1">
          <mxGeometry x="140.06" y="443.44" width="100" height="50" as="geometry" />
        </mxCell>
        <mxCell id="RnYUWjXc_BbfMQrNLgCo-1" value="Да" style="text;html=1;strokeColor=none;fillColor=none;align=center;verticalAlign=middle;whiteSpace=wrap;rounded=0;" parent="z9uXh1xA86YdtKLNnE2--29" vertex="1">
          <mxGeometry x="26.059999999999988" y="365.55" width="60" height="30" as="geometry" />
        </mxCell>
        <mxCell id="RnYUWjXc_BbfMQrNLgCo-2" value="Нет" style="text;html=1;strokeColor=none;fillColor=none;align=center;verticalAlign=middle;whiteSpace=wrap;rounded=0;" parent="z9uXh1xA86YdtKLNnE2--29" vertex="1">
          <mxGeometry x="48.079999999999984" y="431.55" width="37.98" height="30" as="geometry" />
        </mxCell>
        <mxCell id="0W8tkMs0XRIJhyc4O4X--1" value="" style="ellipse;html=1;shape=endState;fillColor=#000000;strokeColor=#000000;" parent="z9uXh1xA86YdtKLNnE2--29" vertex="1">
          <mxGeometry x="292.47999999999996" y="453.44" width="30" height="30" as="geometry" />
        </mxCell>
        <mxCell id="z9uXh1xA86YdtKLNnE2--57" style="edgeStyle=orthogonalEdgeStyle;rounded=0;orthogonalLoop=1;jettySize=auto;html=1;entryX=0;entryY=0.5;entryDx=0;entryDy=0;strokeColor=#000000;" parent="1" source="z9uXh1xA86YdtKLNnE2--49" target="z9uXh1xA86YdtKLNnE2--50" edge="1">
          <mxGeometry relative="1" as="geometry">
            <Array as="points">
              <mxPoint x="770" y="360" />
            </Array>
          </mxGeometry>
        </mxCell>
        <mxCell id="lEvwYSKVqgoVsjnKDAjR-5" value="Да" style="text;html=1;align=center;verticalAlign=middle;resizable=0;points=[];autosize=1;strokeColor=none;fillColor=none;" vertex="1" parent="1">
          <mxGeometry x="691" y="330" width="33" height="26" as="geometry" />
        </mxCell>
        <mxCell id="lEvwYSKVqgoVsjnKDAjR-7" style="edgeStyle=orthogonalEdgeStyle;rounded=0;orthogonalLoop=1;jettySize=auto;html=1;" edge="1" parent="1" source="lEvwYSKVqgoVsjnKDAjR-2" target="z9uXh1xA86YdtKLNnE2--43">
          <mxGeometry relative="1" as="geometry">
            <mxPoint x="572.4255493164062" y="489.8385925292968" as="targetPoint" />
            <Array as="points">
              <mxPoint x="624.52" y="446.7" />
              <mxPoint x="452.52" y="446.7" />
              <mxPoint x="452.52" y="489.7" />
              <mxPoint x="451.52" y="489.7" />
            </Array>
          </mxGeometry>
        </mxCell>
      </root>
    </mxGraphModel>
  </diagram>
  <diagram id="aT7dq3TwxHSGFJUNst0q" name="Диаграмма состояний">
    <mxGraphModel dx="1024" dy="612" grid="0" gridSize="10" guides="1" tooltips="1" connect="1" arrows="1" fold="1" page="0" pageScale="1" pageWidth="1169" pageHeight="827" math="0" shadow="0">
      <root>
        <mxCell id="0" />
        <mxCell id="1" parent="0" />
        <mxCell id="n2BCix7oN7lk6Y4YMK8M-26" style="edgeStyle=orthogonalEdgeStyle;rounded=0;orthogonalLoop=1;jettySize=auto;html=1;entryX=0;entryY=0.5;entryDx=0;entryDy=0;" edge="1" parent="1" source="n2BCix7oN7lk6Y4YMK8M-27" target="n2BCix7oN7lk6Y4YMK8M-31">
          <mxGeometry relative="1" as="geometry">
            <mxPoint x="430.92666666666696" y="359.1" as="targetPoint" />
          </mxGeometry>
        </mxCell>
        <mxCell id="n2BCix7oN7lk6Y4YMK8M-27" value="Заказ талона" style="rounded=1;whiteSpace=wrap;html=1;" vertex="1" parent="1">
          <mxGeometry x="300.9" y="339.08" width="100" height="40" as="geometry" />
        </mxCell>
        <mxCell id="n2BCix7oN7lk6Y4YMK8M-49" style="edgeStyle=orthogonalEdgeStyle;rounded=0;orthogonalLoop=1;jettySize=auto;html=1;entryX=0;entryY=0.5;entryDx=0;entryDy=0;strokeColor=#000000;" edge="1" parent="1" source="n2BCix7oN7lk6Y4YMK8M-31" target="n2BCix7oN7lk6Y4YMK8M-34">
          <mxGeometry relative="1" as="geometry" />
        </mxCell>
        <mxCell id="n2BCix7oN7lk6Y4YMK8M-50" style="rounded=0;orthogonalLoop=1;jettySize=auto;html=1;entryX=0;entryY=0;entryDx=0;entryDy=0;strokeColor=#000000;exitX=1;exitY=1;exitDx=0;exitDy=0;" edge="1" parent="1" source="n2BCix7oN7lk6Y4YMK8M-31" target="n2BCix7oN7lk6Y4YMK8M-45">
          <mxGeometry relative="1" as="geometry" />
        </mxCell>
        <mxCell id="n2BCix7oN7lk6Y4YMK8M-31" value="Ожидание подтверждения талона" style="rounded=1;whiteSpace=wrap;html=1;" vertex="1" parent="1">
          <mxGeometry x="460" y="334.11999999999995" width="110.1" height="49.92" as="geometry" />
        </mxCell>
        <mxCell id="n2BCix7oN7lk6Y4YMK8M-33" style="edgeStyle=orthogonalEdgeStyle;rounded=0;orthogonalLoop=1;jettySize=auto;html=1;entryX=0;entryY=0.5;entryDx=0;entryDy=0;strokeColor=#000000;" edge="1" parent="1" source="n2BCix7oN7lk6Y4YMK8M-34" target="n2BCix7oN7lk6Y4YMK8M-37">
          <mxGeometry relative="1" as="geometry" />
        </mxCell>
        <mxCell id="n2BCix7oN7lk6Y4YMK8M-34" value="Подтверждение заказа талона" style="rounded=1;whiteSpace=wrap;html=1;" vertex="1" parent="1">
          <mxGeometry x="690" y="339.08" width="100" height="40" as="geometry" />
        </mxCell>
        <mxCell id="n2BCix7oN7lk6Y4YMK8M-35" style="edgeStyle=orthogonalEdgeStyle;rounded=0;orthogonalLoop=1;jettySize=auto;html=1;strokeColor=#000000;exitX=1;exitY=0.5;exitDx=0;exitDy=0;" edge="1" parent="1" source="n2BCix7oN7lk6Y4YMK8M-36" target="n2BCix7oN7lk6Y4YMK8M-27">
          <mxGeometry relative="1" as="geometry" />
        </mxCell>
        <mxCell id="n2BCix7oN7lk6Y4YMK8M-36" value="" style="ellipse;html=1;shape=startState;fillColor=#000000;strokeColor=#000000;" vertex="1" parent="1">
          <mxGeometry x="240.89999999999998" y="344.08" width="30" height="30" as="geometry" />
        </mxCell>
        <mxCell id="n2BCix7oN7lk6Y4YMK8M-37" value="" style="ellipse;html=1;shape=endState;fillColor=#000000;strokeColor=#000000;" vertex="1" parent="1">
          <mxGeometry x="810" y="344.08" width="30" height="30" as="geometry" />
        </mxCell>
        <mxCell id="n2BCix7oN7lk6Y4YMK8M-55" style="edgeStyle=orthogonalEdgeStyle;rounded=0;orthogonalLoop=1;jettySize=auto;html=1;strokeColor=#000000;" edge="1" parent="1" source="n2BCix7oN7lk6Y4YMK8M-45" target="n2BCix7oN7lk6Y4YMK8M-27">
          <mxGeometry relative="1" as="geometry" />
        </mxCell>
        <mxCell id="n2BCix7oN7lk6Y4YMK8M-45" value="Отклонение заказа талона" style="rounded=1;whiteSpace=wrap;html=1;" vertex="1" parent="1">
          <mxGeometry x="680" y="440.00000000000006" width="110" height="50" as="geometry" />
        </mxCell>
        <mxCell id="n2BCix7oN7lk6Y4YMK8M-51" value="[талон свободен]" style="text;html=1;strokeColor=none;fillColor=none;align=center;verticalAlign=middle;whiteSpace=wrap;rounded=0;" vertex="1" parent="1">
          <mxGeometry x="580" y="334.12" width="99.9" height="30" as="geometry" />
        </mxCell>
        <mxCell id="n2BCix7oN7lk6Y4YMK8M-54" value="[талон занят]" style="text;html=1;strokeColor=none;fillColor=none;align=center;verticalAlign=middle;whiteSpace=wrap;rounded=0;rotation=25;" vertex="1" parent="1">
          <mxGeometry x="580" y="390" width="99.9" height="30" as="geometry" />
        </mxCell>
        <mxCell id="n2BCix7oN7lk6Y4YMK8M-56" value="Передача на повторный заказ талона" style="text;html=1;strokeColor=none;fillColor=none;align=center;verticalAlign=middle;whiteSpace=wrap;rounded=0;" vertex="1" parent="1">
          <mxGeometry x="400" y="440" width="230" height="30" as="geometry" />
        </mxCell>
      </root>
    </mxGraphModel>
  </diagram>
</mxfile>
